<mxfile host="app.diagrams.net" modified="2023-12-25T14:14:44.647Z" agent="Mozilla/5.0 (Windows NT 10.0; Win64; x64) AppleWebKit/537.36 (KHTML, like Gecko) Chrome/120.0.0.0 Safari/537.36" etag="WzjZMkPwTwxtf9d93sJP" version="22.1.11" type="github">
  <diagram id="C5RBs43oDa-KdzZeNtuy" name="Page-1">
    <mxGraphModel dx="2647" dy="1373" grid="1" gridSize="10" guides="1" tooltips="1" connect="1" arrows="1" fold="1" page="1" pageScale="1" pageWidth="827" pageHeight="1169" math="0" shadow="0">
      <root>
        <mxCell id="WIyWlLk6GJQsqaUBKTNV-0" />
        <mxCell id="WIyWlLk6GJQsqaUBKTNV-1" parent="WIyWlLk6GJQsqaUBKTNV-0" />
        <mxCell id="WIyWlLk6GJQsqaUBKTNV-2" value="" style="rounded=0;html=1;jettySize=auto;orthogonalLoop=1;fontSize=11;endArrow=block;endFill=0;endSize=8;strokeWidth=1;shadow=0;labelBackgroundColor=none;edgeStyle=orthogonalEdgeStyle;" parent="WIyWlLk6GJQsqaUBKTNV-1" edge="1">
          <mxGeometry relative="1" as="geometry">
            <mxPoint x="220" y="120" as="sourcePoint" />
            <mxPoint x="220" y="150" as="targetPoint" />
          </mxGeometry>
        </mxCell>
        <mxCell id="U_Uz1X503R6jEeRlg11g-0" value="Старт" style="ellipse;whiteSpace=wrap;html=1;fillColor=#f8cecc;strokeColor=#b85450;" vertex="1" parent="WIyWlLk6GJQsqaUBKTNV-1">
          <mxGeometry x="160" y="70" width="120" height="50" as="geometry" />
        </mxCell>
        <mxCell id="U_Uz1X503R6jEeRlg11g-6" style="edgeStyle=orthogonalEdgeStyle;rounded=0;orthogonalLoop=1;jettySize=auto;html=1;entryX=0.5;entryY=0;entryDx=0;entryDy=0;" edge="1" parent="WIyWlLk6GJQsqaUBKTNV-1" source="U_Uz1X503R6jEeRlg11g-2" target="U_Uz1X503R6jEeRlg11g-5">
          <mxGeometry relative="1" as="geometry" />
        </mxCell>
        <mxCell id="U_Uz1X503R6jEeRlg11g-2" value="string[]&amp;nbsp;firstarray = [&quot;Russia&quot;, &quot;257&quot;, &quot;Denmark&quot;, &quot;9&quot;, &quot;USA&quot;, &quot;:)&quot;]" style="shape=parallelogram;perimeter=parallelogramPerimeter;whiteSpace=wrap;html=1;fixedSize=1;" vertex="1" parent="WIyWlLk6GJQsqaUBKTNV-1">
          <mxGeometry x="25" y="150" width="390" height="30" as="geometry" />
        </mxCell>
        <mxCell id="U_Uz1X503R6jEeRlg11g-10" style="edgeStyle=orthogonalEdgeStyle;rounded=0;orthogonalLoop=1;jettySize=auto;html=1;entryX=0.5;entryY=0;entryDx=0;entryDy=0;" edge="1" parent="WIyWlLk6GJQsqaUBKTNV-1" source="U_Uz1X503R6jEeRlg11g-3" target="U_Uz1X503R6jEeRlg11g-9">
          <mxGeometry relative="1" as="geometry" />
        </mxCell>
        <mxCell id="U_Uz1X503R6jEeRlg11g-3" value="string[]&amp;nbsp;threeSymbolArray = CreateThreeSymbolArray(firstarray);" style="rounded=0;whiteSpace=wrap;html=1;" vertex="1" parent="WIyWlLk6GJQsqaUBKTNV-1">
          <mxGeometry x="15" y="290" width="410" height="30" as="geometry" />
        </mxCell>
        <mxCell id="U_Uz1X503R6jEeRlg11g-4" style="edgeStyle=orthogonalEdgeStyle;rounded=0;orthogonalLoop=1;jettySize=auto;html=1;exitX=0.5;exitY=1;exitDx=0;exitDy=0;" edge="1" parent="WIyWlLk6GJQsqaUBKTNV-1" source="U_Uz1X503R6jEeRlg11g-2" target="U_Uz1X503R6jEeRlg11g-2">
          <mxGeometry relative="1" as="geometry" />
        </mxCell>
        <mxCell id="U_Uz1X503R6jEeRlg11g-7" style="edgeStyle=orthogonalEdgeStyle;rounded=0;orthogonalLoop=1;jettySize=auto;html=1;" edge="1" parent="WIyWlLk6GJQsqaUBKTNV-1" source="U_Uz1X503R6jEeRlg11g-5" target="U_Uz1X503R6jEeRlg11g-3">
          <mxGeometry relative="1" as="geometry" />
        </mxCell>
        <mxCell id="U_Uz1X503R6jEeRlg11g-5" value="Print (firstarray)" style="shape=document;whiteSpace=wrap;html=1;boundedLbl=1;fillColor=#ffe6cc;strokeColor=#d79b00;" vertex="1" parent="WIyWlLk6GJQsqaUBKTNV-1">
          <mxGeometry x="150" y="210" width="140" height="60" as="geometry" />
        </mxCell>
        <mxCell id="U_Uz1X503R6jEeRlg11g-55" value="" style="edgeStyle=orthogonalEdgeStyle;rounded=0;orthogonalLoop=1;jettySize=auto;html=1;" edge="1" parent="WIyWlLk6GJQsqaUBKTNV-1" source="U_Uz1X503R6jEeRlg11g-8" target="U_Uz1X503R6jEeRlg11g-54">
          <mxGeometry relative="1" as="geometry" />
        </mxCell>
        <mxCell id="U_Uz1X503R6jEeRlg11g-8" value="Print (threeSymbolArray)" style="shape=document;whiteSpace=wrap;html=1;boundedLbl=1;fillColor=#ffe6cc;strokeColor=#d79b00;" vertex="1" parent="WIyWlLk6GJQsqaUBKTNV-1">
          <mxGeometry x="640" y="750" width="170" height="60" as="geometry" />
        </mxCell>
        <mxCell id="U_Uz1X503R6jEeRlg11g-12" style="edgeStyle=orthogonalEdgeStyle;rounded=0;orthogonalLoop=1;jettySize=auto;html=1;entryX=0.5;entryY=0;entryDx=0;entryDy=0;" edge="1" parent="WIyWlLk6GJQsqaUBKTNV-1" source="U_Uz1X503R6jEeRlg11g-9" target="U_Uz1X503R6jEeRlg11g-11">
          <mxGeometry relative="1" as="geometry" />
        </mxCell>
        <mxCell id="U_Uz1X503R6jEeRlg11g-9" value="count = 0&lt;br&gt;i = 0" style="rounded=0;whiteSpace=wrap;html=1;" vertex="1" parent="WIyWlLk6GJQsqaUBKTNV-1">
          <mxGeometry x="142.5" y="340" width="155" height="40" as="geometry" />
        </mxCell>
        <mxCell id="U_Uz1X503R6jEeRlg11g-14" value="" style="edgeStyle=orthogonalEdgeStyle;rounded=0;orthogonalLoop=1;jettySize=auto;html=1;startArrow=none;startFill=0;entryX=0.25;entryY=0;entryDx=0;entryDy=0;" edge="1" parent="WIyWlLk6GJQsqaUBKTNV-1" source="U_Uz1X503R6jEeRlg11g-11" target="U_Uz1X503R6jEeRlg11g-26">
          <mxGeometry relative="1" as="geometry">
            <mxPoint x="440" y="440" as="targetPoint" />
          </mxGeometry>
        </mxCell>
        <mxCell id="U_Uz1X503R6jEeRlg11g-15" value="Нет" style="edgeLabel;html=1;align=center;verticalAlign=middle;resizable=0;points=[];" vertex="1" connectable="0" parent="U_Uz1X503R6jEeRlg11g-14">
          <mxGeometry x="0.086" y="-2" relative="1" as="geometry">
            <mxPoint x="-5" y="-2" as="offset" />
          </mxGeometry>
        </mxCell>
        <mxCell id="U_Uz1X503R6jEeRlg11g-16" style="edgeStyle=orthogonalEdgeStyle;rounded=0;orthogonalLoop=1;jettySize=auto;html=1;exitX=0.5;exitY=1;exitDx=0;exitDy=0;" edge="1" parent="WIyWlLk6GJQsqaUBKTNV-1" source="U_Uz1X503R6jEeRlg11g-11">
          <mxGeometry relative="1" as="geometry">
            <mxPoint x="220" y="530" as="targetPoint" />
          </mxGeometry>
        </mxCell>
        <mxCell id="U_Uz1X503R6jEeRlg11g-17" value="Да" style="edgeLabel;html=1;align=center;verticalAlign=middle;resizable=0;points=[];" vertex="1" connectable="0" parent="U_Uz1X503R6jEeRlg11g-16">
          <mxGeometry x="-0.0364" y="-1" relative="1" as="geometry">
            <mxPoint as="offset" />
          </mxGeometry>
        </mxCell>
        <mxCell id="U_Uz1X503R6jEeRlg11g-11" value="i &amp;lt; firstarray.Length" style="rhombus;whiteSpace=wrap;html=1;" vertex="1" parent="WIyWlLk6GJQsqaUBKTNV-1">
          <mxGeometry x="105" y="400" width="230" height="80" as="geometry" />
        </mxCell>
        <mxCell id="U_Uz1X503R6jEeRlg11g-19" style="edgeStyle=orthogonalEdgeStyle;rounded=0;orthogonalLoop=1;jettySize=auto;html=1;exitX=0.5;exitY=1;exitDx=0;exitDy=0;" edge="1" parent="WIyWlLk6GJQsqaUBKTNV-1" source="U_Uz1X503R6jEeRlg11g-18" target="U_Uz1X503R6jEeRlg11g-20">
          <mxGeometry relative="1" as="geometry">
            <mxPoint x="219.76923076923072" y="590.0000000000001" as="targetPoint" />
          </mxGeometry>
        </mxCell>
        <mxCell id="U_Uz1X503R6jEeRlg11g-18" value="string simbol = array[i];" style="rounded=0;whiteSpace=wrap;html=1;" vertex="1" parent="WIyWlLk6GJQsqaUBKTNV-1">
          <mxGeometry x="150" y="530" width="140" height="40" as="geometry" />
        </mxCell>
        <mxCell id="U_Uz1X503R6jEeRlg11g-21" style="edgeStyle=orthogonalEdgeStyle;rounded=0;orthogonalLoop=1;jettySize=auto;html=1;" edge="1" parent="WIyWlLk6GJQsqaUBKTNV-1" source="U_Uz1X503R6jEeRlg11g-20" target="U_Uz1X503R6jEeRlg11g-22">
          <mxGeometry relative="1" as="geometry">
            <mxPoint x="220.0000000000001" y="690.0000000000001" as="targetPoint" />
          </mxGeometry>
        </mxCell>
        <mxCell id="U_Uz1X503R6jEeRlg11g-23" value="Да" style="edgeLabel;html=1;align=center;verticalAlign=middle;resizable=0;points=[];" vertex="1" connectable="0" parent="U_Uz1X503R6jEeRlg11g-21">
          <mxGeometry x="0.361" y="1" relative="1" as="geometry">
            <mxPoint as="offset" />
          </mxGeometry>
        </mxCell>
        <mxCell id="U_Uz1X503R6jEeRlg11g-27" style="edgeStyle=orthogonalEdgeStyle;rounded=0;orthogonalLoop=1;jettySize=auto;html=1;entryX=1;entryY=0.5;entryDx=0;entryDy=0;" edge="1" parent="WIyWlLk6GJQsqaUBKTNV-1" source="U_Uz1X503R6jEeRlg11g-20" target="U_Uz1X503R6jEeRlg11g-33">
          <mxGeometry relative="1" as="geometry">
            <mxPoint x="330" y="790" as="targetPoint" />
            <Array as="points">
              <mxPoint x="320" y="630" />
              <mxPoint x="320" y="790" />
            </Array>
          </mxGeometry>
        </mxCell>
        <mxCell id="U_Uz1X503R6jEeRlg11g-28" value="Нет" style="edgeLabel;html=1;align=center;verticalAlign=middle;resizable=0;points=[];" vertex="1" connectable="0" parent="U_Uz1X503R6jEeRlg11g-27">
          <mxGeometry x="0.0027" y="-1" relative="1" as="geometry">
            <mxPoint x="1" y="-5" as="offset" />
          </mxGeometry>
        </mxCell>
        <mxCell id="U_Uz1X503R6jEeRlg11g-20" value="simbol.Length &amp;lt;= 3" style="rhombus;whiteSpace=wrap;html=1;" vertex="1" parent="WIyWlLk6GJQsqaUBKTNV-1">
          <mxGeometry x="150" y="590" width="140" height="80" as="geometry" />
        </mxCell>
        <mxCell id="U_Uz1X503R6jEeRlg11g-32" style="edgeStyle=orthogonalEdgeStyle;rounded=0;orthogonalLoop=1;jettySize=auto;html=1;entryX=0;entryY=0.5;entryDx=0;entryDy=0;exitX=0;exitY=0.5;exitDx=0;exitDy=0;" edge="1" parent="WIyWlLk6GJQsqaUBKTNV-1" source="U_Uz1X503R6jEeRlg11g-33" target="U_Uz1X503R6jEeRlg11g-11">
          <mxGeometry relative="1" as="geometry">
            <mxPoint x="50" y="440" as="targetPoint" />
            <Array as="points">
              <mxPoint x="85" y="790" />
              <mxPoint x="85" y="440" />
            </Array>
          </mxGeometry>
        </mxCell>
        <mxCell id="U_Uz1X503R6jEeRlg11g-34" style="edgeStyle=orthogonalEdgeStyle;rounded=0;orthogonalLoop=1;jettySize=auto;html=1;entryX=0.5;entryY=0;entryDx=0;entryDy=0;" edge="1" parent="WIyWlLk6GJQsqaUBKTNV-1" source="U_Uz1X503R6jEeRlg11g-22" target="U_Uz1X503R6jEeRlg11g-33">
          <mxGeometry relative="1" as="geometry" />
        </mxCell>
        <mxCell id="U_Uz1X503R6jEeRlg11g-22" value="count = count + 1" style="rounded=0;whiteSpace=wrap;html=1;" vertex="1" parent="WIyWlLk6GJQsqaUBKTNV-1">
          <mxGeometry x="160" y="700" width="120" height="40" as="geometry" />
        </mxCell>
        <mxCell id="U_Uz1X503R6jEeRlg11g-31" value="" style="edgeStyle=orthogonalEdgeStyle;rounded=0;orthogonalLoop=1;jettySize=auto;html=1;" edge="1" parent="WIyWlLk6GJQsqaUBKTNV-1" source="U_Uz1X503R6jEeRlg11g-26" target="U_Uz1X503R6jEeRlg11g-30">
          <mxGeometry relative="1" as="geometry" />
        </mxCell>
        <mxCell id="U_Uz1X503R6jEeRlg11g-26" value="string[] threeSymbolArray = new string[count];" style="rounded=0;whiteSpace=wrap;html=1;" vertex="1" parent="WIyWlLk6GJQsqaUBKTNV-1">
          <mxGeometry x="360" y="600" width="270" height="60" as="geometry" />
        </mxCell>
        <mxCell id="U_Uz1X503R6jEeRlg11g-36" value="" style="edgeStyle=orthogonalEdgeStyle;rounded=0;orthogonalLoop=1;jettySize=auto;html=1;" edge="1" parent="WIyWlLk6GJQsqaUBKTNV-1" source="U_Uz1X503R6jEeRlg11g-30" target="U_Uz1X503R6jEeRlg11g-35">
          <mxGeometry relative="1" as="geometry" />
        </mxCell>
        <mxCell id="U_Uz1X503R6jEeRlg11g-30" value="i = 0&lt;br&gt;j = 0" style="whiteSpace=wrap;html=1;rounded=0;" vertex="1" parent="WIyWlLk6GJQsqaUBKTNV-1">
          <mxGeometry x="435" y="680" width="120" height="40" as="geometry" />
        </mxCell>
        <mxCell id="U_Uz1X503R6jEeRlg11g-33" value="i = i + 1" style="rounded=0;whiteSpace=wrap;html=1;" vertex="1" parent="WIyWlLk6GJQsqaUBKTNV-1">
          <mxGeometry x="160" y="770" width="120" height="40" as="geometry" />
        </mxCell>
        <mxCell id="U_Uz1X503R6jEeRlg11g-38" value="" style="edgeStyle=orthogonalEdgeStyle;rounded=0;orthogonalLoop=1;jettySize=auto;html=1;" edge="1" parent="WIyWlLk6GJQsqaUBKTNV-1" source="U_Uz1X503R6jEeRlg11g-35" target="U_Uz1X503R6jEeRlg11g-37">
          <mxGeometry relative="1" as="geometry" />
        </mxCell>
        <mxCell id="U_Uz1X503R6jEeRlg11g-39" value="Да" style="edgeLabel;html=1;align=center;verticalAlign=middle;resizable=0;points=[];" vertex="1" connectable="0" parent="U_Uz1X503R6jEeRlg11g-38">
          <mxGeometry x="0.0599" relative="1" as="geometry">
            <mxPoint as="offset" />
          </mxGeometry>
        </mxCell>
        <mxCell id="U_Uz1X503R6jEeRlg11g-52" style="edgeStyle=orthogonalEdgeStyle;rounded=0;orthogonalLoop=1;jettySize=auto;html=1;" edge="1" parent="WIyWlLk6GJQsqaUBKTNV-1" source="U_Uz1X503R6jEeRlg11g-35">
          <mxGeometry relative="1" as="geometry">
            <mxPoint x="640" y="770" as="targetPoint" />
          </mxGeometry>
        </mxCell>
        <mxCell id="U_Uz1X503R6jEeRlg11g-35" value="i &amp;lt; firstarray.Length" style="rhombus;whiteSpace=wrap;html=1;rounded=0;" vertex="1" parent="WIyWlLk6GJQsqaUBKTNV-1">
          <mxGeometry x="420" y="740" width="150" height="60" as="geometry" />
        </mxCell>
        <mxCell id="U_Uz1X503R6jEeRlg11g-41" value="" style="edgeStyle=orthogonalEdgeStyle;rounded=0;orthogonalLoop=1;jettySize=auto;html=1;entryX=0.496;entryY=-0.017;entryDx=0;entryDy=0;entryPerimeter=0;" edge="1" parent="WIyWlLk6GJQsqaUBKTNV-1" source="U_Uz1X503R6jEeRlg11g-37" target="U_Uz1X503R6jEeRlg11g-42">
          <mxGeometry relative="1" as="geometry">
            <mxPoint x="487.53846153846166" y="900" as="targetPoint" />
          </mxGeometry>
        </mxCell>
        <mxCell id="U_Uz1X503R6jEeRlg11g-37" value="string simbol = array[i];" style="whiteSpace=wrap;html=1;rounded=0;" vertex="1" parent="WIyWlLk6GJQsqaUBKTNV-1">
          <mxGeometry x="422.5" y="840" width="145" height="40" as="geometry" />
        </mxCell>
        <mxCell id="U_Uz1X503R6jEeRlg11g-45" value="" style="edgeStyle=orthogonalEdgeStyle;rounded=0;orthogonalLoop=1;jettySize=auto;html=1;" edge="1" parent="WIyWlLk6GJQsqaUBKTNV-1" source="U_Uz1X503R6jEeRlg11g-42" target="U_Uz1X503R6jEeRlg11g-44">
          <mxGeometry relative="1" as="geometry" />
        </mxCell>
        <mxCell id="U_Uz1X503R6jEeRlg11g-46" value="Да" style="edgeLabel;html=1;align=center;verticalAlign=middle;resizable=0;points=[];" vertex="1" connectable="0" parent="U_Uz1X503R6jEeRlg11g-45">
          <mxGeometry x="-0.2475" y="-1" relative="1" as="geometry">
            <mxPoint as="offset" />
          </mxGeometry>
        </mxCell>
        <mxCell id="U_Uz1X503R6jEeRlg11g-50" style="edgeStyle=orthogonalEdgeStyle;rounded=0;orthogonalLoop=1;jettySize=auto;html=1;entryX=1;entryY=0.5;entryDx=0;entryDy=0;" edge="1" parent="WIyWlLk6GJQsqaUBKTNV-1" source="U_Uz1X503R6jEeRlg11g-42" target="U_Uz1X503R6jEeRlg11g-48">
          <mxGeometry relative="1" as="geometry">
            <Array as="points">
              <mxPoint x="610" y="930" />
              <mxPoint x="610" y="1110" />
            </Array>
          </mxGeometry>
        </mxCell>
        <mxCell id="U_Uz1X503R6jEeRlg11g-51" value="Нет" style="edgeLabel;html=1;align=center;verticalAlign=middle;resizable=0;points=[];" vertex="1" connectable="0" parent="U_Uz1X503R6jEeRlg11g-50">
          <mxGeometry x="-0.0941" y="-2" relative="1" as="geometry">
            <mxPoint as="offset" />
          </mxGeometry>
        </mxCell>
        <mxCell id="U_Uz1X503R6jEeRlg11g-42" value="simbol.Length &amp;lt;= 3" style="rhombus;whiteSpace=wrap;html=1;" vertex="1" parent="WIyWlLk6GJQsqaUBKTNV-1">
          <mxGeometry x="410" y="900" width="170" height="60" as="geometry" />
        </mxCell>
        <mxCell id="U_Uz1X503R6jEeRlg11g-47" style="edgeStyle=orthogonalEdgeStyle;rounded=0;orthogonalLoop=1;jettySize=auto;html=1;entryX=0;entryY=0.5;entryDx=0;entryDy=0;exitX=0;exitY=0.5;exitDx=0;exitDy=0;" edge="1" parent="WIyWlLk6GJQsqaUBKTNV-1" source="U_Uz1X503R6jEeRlg11g-48" target="U_Uz1X503R6jEeRlg11g-35">
          <mxGeometry relative="1" as="geometry">
            <mxPoint x="360" y="780" as="targetPoint" />
            <Array as="points">
              <mxPoint x="380" y="1110" />
              <mxPoint x="380" y="770" />
            </Array>
          </mxGeometry>
        </mxCell>
        <mxCell id="U_Uz1X503R6jEeRlg11g-49" style="edgeStyle=orthogonalEdgeStyle;rounded=0;orthogonalLoop=1;jettySize=auto;html=1;entryX=0.5;entryY=0;entryDx=0;entryDy=0;" edge="1" parent="WIyWlLk6GJQsqaUBKTNV-1" source="U_Uz1X503R6jEeRlg11g-44" target="U_Uz1X503R6jEeRlg11g-48">
          <mxGeometry relative="1" as="geometry" />
        </mxCell>
        <mxCell id="U_Uz1X503R6jEeRlg11g-44" value="threeSymbolArray[j] = simbol&lt;br&gt;j = j + 1" style="whiteSpace=wrap;html=1;" vertex="1" parent="WIyWlLk6GJQsqaUBKTNV-1">
          <mxGeometry x="401.25" y="1000" width="187.5" height="60" as="geometry" />
        </mxCell>
        <mxCell id="U_Uz1X503R6jEeRlg11g-48" value="i = i + 1" style="rounded=0;whiteSpace=wrap;html=1;" vertex="1" parent="WIyWlLk6GJQsqaUBKTNV-1">
          <mxGeometry x="435" y="1090" width="120" height="40" as="geometry" />
        </mxCell>
        <mxCell id="U_Uz1X503R6jEeRlg11g-54" value="Финиш" style="ellipse;whiteSpace=wrap;html=1;fillColor=#f8cecc;strokeColor=#b85450;" vertex="1" parent="WIyWlLk6GJQsqaUBKTNV-1">
          <mxGeometry x="850" y="750" width="155" height="60" as="geometry" />
        </mxCell>
      </root>
    </mxGraphModel>
  </diagram>
</mxfile>
